<svg width="117" height="109" viewBox="0 0 117 109" fill="none" xmlns="http://www.w3.org/2000/svg">
<path d="M75.9776 29.9639C97.4447 29.9639 113 47.5368 113 67.0376C113 73.266 111.19 79.6797 108.012 85.5374C107.421 86.5013 107.347 87.7247 107.753 88.874L110.229 97.1785C110.783 99.1805 109.083 100.663 107.199 100.07L99.7355 97.8458C97.7033 97.1785 96.1146 98.0312 94.2265 99.1805C88.832 102.369 82.1111 104 76.0515 104C57.7251 104 39.1031 89.8008 39.1031 66.9264C39.1031 47.2031 54.9909 29.9639 75.9776 29.9639" fill="url(#paint0_linear_77_276)"/>
<g opacity="0.5" filter="url(#filter0_f_77_276)">
<path d="M99.5708 67.4073C99.5708 80.6336 88.8875 91.3507 75.7082 91.3507C62.529 91.3507 51.8457 80.6336 51.8457 67.4073C51.8457 54.1857 62.529 43.4639 75.7082 43.4639C88.8875 43.4639 99.5708 54.1857 99.5708 67.4073Z" fill="#409F82"/>
</g>
<foreignObject x="-24" y="-24" width="144.295" height="144.473"><div xmlns="http://www.w3.org/1999/xhtml" style="backdrop-filter:blur(12px);clip-path:url(#bgblur_0_77_276_clip_path);height:100%;width:100%"></div></foreignObject><path data-figma-bg-blur-radius="24" d="M48.2422 0.5C75.3108 0.500083 95.7959 22.7351 95.7959 48.166C95.7957 77.6678 71.7701 95.9736 48.1475 95.9736C40.3353 95.9736 31.6695 93.8724 24.7012 89.7539L24.6953 89.75C22.2735 88.2758 20.4338 87.3225 18.082 88.0947L18.0693 88.0996L8.55176 90.9346C7.18949 91.3633 5.85708 91.0496 4.96289 90.2227C4.06332 89.3906 3.65409 88.0818 4.05469 86.6348L4.05664 86.626L7.21582 76.0293L7.22363 76.0049C7.70013 74.6574 7.60182 73.2575 6.93848 72.1758C6.93386 72.1683 6.92999 72.1601 6.92578 72.1523C2.83745 64.6158 0.500013 56.3504 0.5 48.3076C0.5 23.1661 20.5552 0.5 48.2422 0.5Z" fill="#7FCFB6" fill-opacity="0.35" stroke="url(#paint1_linear_77_276)" stroke-linecap="round" stroke-linejoin="round"/>
<foreignObject x="5.28369" y="27.2988" width="85.541" height="42.1108"><div xmlns="http://www.w3.org/1999/xhtml" style="backdrop-filter:blur(7.5px);clip-path:url(#bgblur_1_77_276_clip_path);height:100%;width:100%"></div></foreignObject><g filter="url(#filter2_d_77_276)" data-figma-bg-blur-radius="15">
<mask id="path-4-inside-1_77_276" fill="white">
<path d="M26.3188 42.2994C29.6661 42.2996 32.3528 44.9956 32.353 48.3541C32.353 51.6656 29.6662 54.3623 26.3188 54.4098C23.0185 54.4098 20.2837 51.6656 20.2837 48.3541C20.2839 44.9955 22.9715 42.2994 26.3188 42.2994ZM48.0552 42.2994C51.4025 42.2994 54.0901 44.9955 54.0903 48.3541C54.0903 51.6656 51.4027 54.4098 48.0552 54.4098C44.7078 54.3623 42.0201 51.666 42.02 48.3072C42.02 44.9958 44.7549 42.2523 48.0552 42.2994ZM69.7896 42.2994C73.1369 42.2994 75.8245 44.9955 75.8247 48.3541C75.8247 51.6656 73.137 54.4098 69.7896 54.4098C66.4422 54.4096 63.7554 51.6656 63.7554 48.3541C63.7556 44.9955 66.4423 42.2996 69.7896 42.2994Z"/>
</mask>
<path d="M26.3188 42.2994C29.6661 42.2996 32.3528 44.9956 32.353 48.3541C32.353 51.6656 29.6662 54.3623 26.3188 54.4098C23.0185 54.4098 20.2837 51.6656 20.2837 48.3541C20.2839 44.9955 22.9715 42.2994 26.3188 42.2994ZM48.0552 42.2994C51.4025 42.2994 54.0901 44.9955 54.0903 48.3541C54.0903 51.6656 51.4027 54.4098 48.0552 54.4098C44.7078 54.3623 42.0201 51.666 42.02 48.3072C42.02 44.9958 44.7549 42.2523 48.0552 42.2994ZM69.7896 42.2994C73.1369 42.2994 75.8245 44.9955 75.8247 48.3541C75.8247 51.6656 73.137 54.4098 69.7896 54.4098C66.4422 54.4096 63.7554 51.6656 63.7554 48.3541C63.7556 44.9955 66.4423 42.2996 69.7896 42.2994Z" fill="url(#paint2_linear_77_276)"/>
<path d="M26.3188 42.2994L26.3189 41.8994H26.3188V42.2994ZM32.353 48.3541H32.753V48.3541L32.353 48.3541ZM26.3188 54.4098V54.8098L26.3245 54.8097L26.3188 54.4098ZM20.2837 48.3541L19.8837 48.3541V48.3541H20.2837ZM48.0552 42.2994L48.0495 42.6994H48.0552V42.2994ZM54.0903 48.3541H54.4903V48.3541L54.0903 48.3541ZM48.0552 54.4098L48.0495 54.8098H48.0552V54.4098ZM42.02 48.3072H41.62V48.3072L42.02 48.3072ZM69.7896 42.2994V41.8994H69.7895L69.7896 42.2994ZM75.8247 48.3541H76.2247V48.3541L75.8247 48.3541ZM69.7896 54.4098L69.7895 54.8098H69.7896V54.4098ZM63.7554 48.3541L63.3554 48.3541V48.3541H63.7554ZM26.3188 42.2994L26.3188 42.6994C29.4439 42.6996 31.9528 45.2152 31.953 48.3541L32.353 48.3541L32.753 48.3541C32.7528 44.7759 29.8883 41.8996 26.3189 41.8994L26.3188 42.2994ZM32.353 48.3541H31.953C31.953 51.4429 29.4458 53.9654 26.3132 54.0098L26.3188 54.4098L26.3245 54.8097C29.8866 54.7593 32.753 51.8882 32.753 48.3541H32.353ZM26.3188 54.4098V54.0098C23.2407 54.0098 20.6837 51.446 20.6837 48.3541H20.2837H19.8837C19.8837 51.8853 22.7963 54.8098 26.3188 54.8098V54.4098ZM20.2837 48.3541L20.6837 48.3541C20.6839 45.2152 23.1936 42.6994 26.3188 42.6994V42.2994V41.8994C22.7494 41.8994 19.8839 44.7758 19.8837 48.3541L20.2837 48.3541ZM48.0552 42.2994V42.6994C51.1804 42.6994 53.6901 45.2152 53.6903 48.3541L54.0903 48.3541L54.4903 48.3541C54.4901 44.7758 51.6247 41.8994 48.0552 41.8994V42.2994ZM54.0903 48.3541H53.6903C53.6903 51.448 51.1784 54.0098 48.0552 54.0098V54.4098V54.8098C51.6269 54.8098 54.4903 51.8832 54.4903 48.3541H54.0903ZM48.0552 54.4098L48.0608 54.0098C44.9301 53.9655 42.42 51.4452 42.42 48.3072L42.02 48.3072L41.62 48.3072C41.6201 51.8867 44.4855 54.7592 48.0495 54.8097L48.0552 54.4098ZM42.02 48.3072H42.42C42.42 45.2143 44.977 42.6555 48.0495 42.6994L48.0552 42.2994L48.0609 41.8995C44.5329 41.849 41.62 44.7773 41.62 48.3072H42.02ZM69.7896 42.2994V42.6994C72.9148 42.6994 75.4245 45.2152 75.4247 48.3541L75.8247 48.3541L76.2247 48.3541C76.2245 44.7758 73.359 41.8994 69.7896 41.8994V42.2994ZM75.8247 48.3541H75.4247C75.4247 51.448 72.9128 54.0098 69.7896 54.0098V54.4098V54.8098C73.3613 54.8098 76.2247 51.8832 76.2247 48.3541H75.8247ZM69.7896 54.4098L69.7896 54.0098C66.6665 54.0096 64.1554 51.448 64.1554 48.3541H63.7554H63.3554C63.3554 51.8831 66.2179 54.8096 69.7895 54.8098L69.7896 54.4098ZM63.7554 48.3541L64.1554 48.3541C64.1556 45.2152 66.6645 42.6996 69.7896 42.6994L69.7896 42.2994L69.7895 41.8994C66.2201 41.8996 63.3556 44.7759 63.3554 48.3541L63.7554 48.3541Z" fill="url(#paint3_linear_77_276)" mask="url(#path-4-inside-1_77_276)"/>
</g>
<defs>
<filter id="filter0_f_77_276" x="34.8457" y="26.4639" width="81.7251" height="81.8867" filterUnits="userSpaceOnUse" color-interpolation-filters="sRGB">
<feFlood flood-opacity="0" result="BackgroundImageFix"/>
<feBlend mode="normal" in="SourceGraphic" in2="BackgroundImageFix" result="shape"/>
<feGaussianBlur stdDeviation="8.5" result="effect1_foregroundBlur_77_276"/>
</filter>
<clipPath id="bgblur_0_77_276_clip_path" transform="translate(24 24)"><path d="M48.2422 0.5C75.3108 0.500083 95.7959 22.7351 95.7959 48.166C95.7957 77.6678 71.7701 95.9736 48.1475 95.9736C40.3353 95.9736 31.6695 93.8724 24.7012 89.7539L24.6953 89.75C22.2735 88.2758 20.4338 87.3225 18.082 88.0947L18.0693 88.0996L8.55176 90.9346C7.18949 91.3633 5.85708 91.0496 4.96289 90.2227C4.06332 89.3906 3.65409 88.0818 4.05469 86.6348L4.05664 86.626L7.21582 76.0293L7.22363 76.0049C7.70013 74.6574 7.60182 73.2575 6.93848 72.1758C6.93386 72.1683 6.92999 72.1601 6.92578 72.1523C2.83745 64.6158 0.500013 56.3504 0.5 48.3076C0.5 23.1661 20.5552 0.5 48.2422 0.5Z"/>
</clipPath><filter id="filter2_d_77_276" x="5.28369" y="27.2988" width="85.541" height="42.1108" filterUnits="userSpaceOnUse" color-interpolation-filters="sRGB">
<feFlood flood-opacity="0" result="BackgroundImageFix"/>
<feColorMatrix in="SourceAlpha" type="matrix" values="0 0 0 0 0 0 0 0 0 0 0 0 0 0 0 0 0 0 127 0" result="hardAlpha"/>
<feOffset dx="5" dy="5"/>
<feGaussianBlur stdDeviation="5"/>
<feColorMatrix type="matrix" values="0 0 0 0 0.136161 0 0 0 0 0.431731 0 0 0 0 0.341504 0 0 0 0.5 0"/>
<feBlend mode="normal" in2="BackgroundImageFix" result="effect1_dropShadow_77_276"/>
<feBlend mode="normal" in="SourceGraphic" in2="effect1_dropShadow_77_276" result="shape"/>
</filter>
<clipPath id="bgblur_1_77_276_clip_path" transform="translate(-5.28369 -27.2988)"><path d="M26.3188 42.2994C29.6661 42.2996 32.3528 44.9956 32.353 48.3541C32.353 51.6656 29.6662 54.3623 26.3188 54.4098C23.0185 54.4098 20.2837 51.6656 20.2837 48.3541C20.2839 44.9955 22.9715 42.2994 26.3188 42.2994ZM48.0552 42.2994C51.4025 42.2994 54.0901 44.9955 54.0903 48.3541C54.0903 51.6656 51.4027 54.4098 48.0552 54.4098C44.7078 54.3623 42.0201 51.666 42.02 48.3072C42.02 44.9958 44.7549 42.2523 48.0552 42.2994ZM69.7896 42.2994C73.1369 42.2994 75.8245 44.9955 75.8247 48.3541C75.8247 51.6656 73.137 54.4098 69.7896 54.4098C66.4422 54.4096 63.7554 51.6656 63.7554 48.3541C63.7556 44.9955 66.4423 42.2996 69.7896 42.2994Z"/>
</clipPath><linearGradient id="paint0_linear_77_276" x1="76.0515" y1="29.9639" x2="76.0515" y2="104" gradientUnits="userSpaceOnUse">
<stop stop-color="#258B6C"/>
<stop offset="1" stop-color="#147859"/>
</linearGradient>
<linearGradient id="paint1_linear_77_276" x1="16.0103" y1="12.0062" x2="76.2979" y2="86.5335" gradientUnits="userSpaceOnUse">
<stop stop-color="white" stop-opacity="0.25"/>
<stop offset="1" stop-color="white" stop-opacity="0"/>
</linearGradient>
<linearGradient id="paint2_linear_77_276" x1="71.8869" y1="44.4858" x2="11.3081" y2="53.5438" gradientUnits="userSpaceOnUse">
<stop stop-color="white"/>
<stop offset="1" stop-color="white" stop-opacity="0.2"/>
</linearGradient>
<linearGradient id="paint3_linear_77_276" x1="29.1249" y1="43.7098" x2="31.824" y2="59.0404" gradientUnits="userSpaceOnUse">
<stop stop-color="white" stop-opacity="0.25"/>
<stop offset="1" stop-color="white" stop-opacity="0"/>
</linearGradient>
</defs>
</svg>
