<svg width="572" height="574" viewBox="0 0 572 574" fill="none" xmlns="http://www.w3.org/2000/svg">
<path d="M450.605 296.86C488.501 249.325 550.997 273.092 568.264 238.295C587.517 199.303 527.465 132.194 499.655 101.125C458.857 55.609 423.559 16.1513 365.952 10.0929C300.705 3.10231 223.692 40.5405 214.066 89.6296C204.745 137.165 265.255 163.574 254.712 207.537C240.806 264.704 129.26 258.335 122.384 302.297C116.272 341.755 199.091 393.019 271.214 407.466C289.398 411.039 377.26 428.593 417.905 381.368C442.812 352.474 425.24 328.706 450.605 296.86Z" fill="url(#paint0_linear_92_209)"/>
<path opacity="0.56" d="M61.2623 367.387C61.1095 220.586 219.567 127.379 350.519 166.681C445.716 195.109 490.029 275.889 500.725 297.171C530.216 355.892 564.291 478.925 496.752 538.888C453.967 576.793 383.983 586.424 334.628 555.821C313.846 542.927 298.566 523.665 291.995 499.741C288.022 485.45 288.939 468.206 272.895 461.682C265.56 458.73 257.156 458.73 249.363 460.594C213.76 469.449 190.993 513.412 151.569 508.907C128.19 506.266 112.146 485.45 98.0881 468.362C74.862 439.933 61.2623 404.515 61.2623 367.387Z" fill="#1E6D55"/>
<path d="M0.90522 363.038C9.1566 330.881 70.7363 343.93 111.382 290.802C131.246 264.859 146.221 222.916 135.983 185.012C119.175 122.718 46.7462 117.592 47.0518 79.0663C47.3575 39.9193 120.55 -11.1893 178.31 2.17037C245.238 17.5496 251.503 109.825 319.347 117.903C360.299 122.874 380.774 91.96 405.834 104.543C442.354 122.874 441.437 200.702 432.269 246.839C416.072 328.706 360.299 378.572 340.434 395.815C324.237 409.952 210.399 505.8 98.0882 465.255C43.9958 445.681 -7.49896 395.039 0.90522 363.038Z" fill="url(#paint1_linear_92_209)"/>
<path opacity="0.56" d="M101.908 169.166C99.3103 160.467 94.4206 152.544 88.3084 147.729C78.0706 139.806 63.5543 136.388 50.7189 138.408C36.9666 140.583 18.7829 154.098 27.9511 170.254C32.2296 177.71 40.3281 179.73 48.1211 181.128C50.5659 181.594 53.0108 182.06 54.8445 183.769C57.1365 185.788 57.595 189.206 58.359 192.157C61.5679 203.187 73.1809 214.216 85.2524 210.799C103.742 205.672 107.103 185.943 101.908 169.166Z" fill="#1E6D55"/>
<path d="M73.028 230.372C73.028 229.596 72.8753 229.285 72.8753 228.198C72.5697 226.023 72.4167 224.625 71.0415 222.605C68.9023 219.188 65.9991 217.013 62.179 215.77C62.179 215.77 62.1789 215.77 62.0261 215.77C61.7205 215.615 61.2621 215.459 60.9565 215.304C58.5117 214.683 56.0669 214.683 53.7748 215.304C51.4828 216.081 49.3434 217.168 47.5098 218.877C47.0514 219.343 46.7459 219.964 46.2874 220.43C45.829 220.896 45.3706 221.518 45.0649 221.984C44.4537 222.916 43.8425 224.625 43.5369 225.712C43.0785 226.955 43.0786 228.508 43.0786 229.906C43.0786 232.703 43.5369 233.79 44.4537 236.12C45.2177 238.14 45.2178 237.984 46.4402 239.538C47.6626 241.247 47.5099 241.091 49.1907 242.334C49.802 242.8 50.2603 243.266 50.8715 243.732C53.0108 245.13 55.6084 245.596 58.0532 245.752C60.6509 245.907 63.5541 244.82 65.6934 243.577C67.0686 242.8 67.8326 242.179 68.7495 241.091C69.5135 240.315 70.4303 239.072 71.0415 237.984C72.1111 236.12 72.5695 234.256 72.7223 232.392C72.8751 231.771 73.028 230.994 73.028 230.372Z" fill="#1E6D55"/>
<path d="M45.8291 199.148C45.5235 198.216 45.0651 197.284 44.4538 196.507C44.301 196.197 43.9954 195.886 43.6898 195.575C43.3842 195.265 43.2314 195.109 42.9258 194.954C42.4674 194.488 41.8562 194.177 41.245 194.022C40.6338 193.711 40.0227 193.556 39.4114 193.556C38.4946 193.401 37.425 193.401 36.5081 193.711C35.8969 193.867 35.2858 194.177 34.6746 194.488C34.369 194.643 33.2993 195.42 33.1465 195.731C32.9937 195.886 32.0768 197.129 31.924 197.284C31.7712 197.595 31.16 198.838 31.16 199.148C31.0072 199.77 31.0073 200.546 30.8545 201.168C31.0073 201.789 31.0072 202.566 31.16 203.187C31.4656 204.119 31.9241 205.051 32.5353 205.828C32.8409 206.45 33.2993 206.916 33.9106 207.226C34.369 207.692 34.9801 208.003 35.5914 208.158C36.2026 208.469 36.8137 208.624 37.5777 208.624C38.1889 208.78 38.953 208.78 39.5642 208.624C40.6338 208.624 41.5507 208.314 42.3147 207.692C42.7732 207.226 43.3844 206.916 43.8428 206.45C44.3012 205.984 44.6067 205.362 45.0651 204.896C45.3707 204.275 45.5235 203.653 45.8291 203.032C45.9819 202.411 45.982 201.634 46.1348 201.012C45.982 200.546 45.8291 199.77 45.8291 199.148Z" fill="#1E6D55"/>
<path d="M558.637 334.144C558.026 318.609 550.08 303.075 540.301 291.424C534.495 284.433 521.048 270.297 512.491 281.326C506.99 288.472 513.408 296.395 516.617 302.919C520.589 310.997 524.257 319.852 527.618 328.396C530.369 335.697 532.203 345.484 539.843 349.523C545.955 352.785 552.373 349.678 555.887 344.241C558.179 341.134 558.79 337.717 558.637 334.144Z" fill="url(#paint2_linear_92_209)"/>
<path d="M545.344 268.122C540.913 265.636 536.94 264.238 531.897 266.257C529.3 267.345 529.453 270.918 531.745 272.005C535.717 274.025 553.595 293.598 556.193 279.772C557.416 273.559 549.623 270.452 545.344 268.122Z" fill="url(#paint3_linear_92_209)"/>
<path d="M252.725 524.286C264.54 524.286 274.118 514.549 274.118 502.538C274.118 490.526 264.54 480.789 252.725 480.789C240.911 480.789 231.333 490.526 231.333 502.538C231.333 514.549 240.911 524.286 252.725 524.286Z" fill="url(#paint4_linear_92_209)"/>
<path d="M281.758 535.16C285.978 535.16 289.398 531.682 289.398 527.393C289.398 523.103 285.978 519.625 281.758 519.625C277.539 519.625 274.118 523.103 274.118 527.393C274.118 531.682 277.539 535.16 281.758 535.16Z" fill="url(#paint5_linear_92_209)"/>
<path d="M258.837 549.141C262.213 549.141 264.949 546.359 264.949 542.927C264.949 539.496 262.213 536.714 258.837 536.714C255.462 536.714 252.725 539.496 252.725 542.927C252.725 546.359 255.462 549.141 258.837 549.141Z" fill="url(#paint6_linear_92_209)"/>
<path d="M522.118 80.4644L526.091 75.338L530.063 70.3669L532.355 76.4254L534.647 82.4839L528.383 81.3965L522.118 80.4644Z" stroke="url(#paint7_linear_92_209)" stroke-width="1.2573" stroke-miterlimit="10"/>
<path d="M535.87 18.3262L539.842 13.1998L543.815 8.22876L546.107 14.2872L548.399 20.3457L542.135 19.2583L535.87 18.3262Z" stroke="url(#paint8_linear_92_209)" stroke-width="1.2573" stroke-miterlimit="10"/>
<defs>
<linearGradient id="paint0_linear_92_209" x1="113.659" y1="343.164" x2="473.924" y2="137.058" gradientUnits="userSpaceOnUse">
<stop stop-color="#4BB39C"/>
<stop offset="0.9959" stop-color="#1C7260"/>
</linearGradient>
<linearGradient id="paint1_linear_92_209" x1="47.2829" y1="474.415" x2="322.929" y2="55.8702" gradientUnits="userSpaceOnUse">
<stop stop-color="#86E3CE"/>
<stop offset="1" stop-color="#77C0AA"/>
</linearGradient>
<linearGradient id="paint2_linear_92_209" x1="510.344" y1="314.161" x2="558.651" y2="314.161" gradientUnits="userSpaceOnUse">
<stop stop-color="#1E6D55"/>
<stop offset="1" stop-color="#86E3CE"/>
</linearGradient>
<linearGradient id="paint3_linear_92_209" x1="530.093" y1="274.993" x2="556.38" y2="274.993" gradientUnits="userSpaceOnUse">
<stop stop-color="#86E3CE"/>
<stop offset="1" stop-color="#409F82"/>
</linearGradient>
<linearGradient id="paint4_linear_92_209" x1="231.333" y1="502.538" x2="274.118" y2="502.538" gradientUnits="userSpaceOnUse">
<stop stop-color="#4BB39C"/>
<stop offset="1" stop-color="#0E5C4A"/>
</linearGradient>
<linearGradient id="paint5_linear_92_209" x1="274.118" y1="527.393" x2="289.398" y2="527.393" gradientUnits="userSpaceOnUse">
<stop stop-color="#4BB39C"/>
<stop offset="1" stop-color="#0E5C4A"/>
</linearGradient>
<linearGradient id="paint6_linear_92_209" x1="252.725" y1="542.927" x2="264.949" y2="542.927" gradientUnits="userSpaceOnUse">
<stop stop-color="#4BB39C"/>
<stop offset="1" stop-color="#0E5C4A"/>
</linearGradient>
<linearGradient id="paint7_linear_92_209" x1="530.011" y1="68.3153" x2="528.193" y2="82.5833" gradientUnits="userSpaceOnUse">
<stop stop-color="#86E3CE"/>
<stop offset="1" stop-color="#86BF9D"/>
</linearGradient>
<linearGradient id="paint8_linear_92_209" x1="543.759" y1="6.17929" x2="541.942" y2="20.4473" gradientUnits="userSpaceOnUse">
<stop stop-color="#86E3CE"/>
<stop offset="1" stop-color="#D0E6A5"/>
</linearGradient>
</defs>
</svg>
